<svg viewBox="0 0 480 80" xmlns="http://www.w3.org/2000/svg" font-family="'Segoe UI',system-ui,sans-serif">
  <defs><marker id="a" markerWidth="5" markerHeight="5" refX="5" refY="2.5" orient="auto"><path d="M0,0 L5,2.5 L0,5" fill="none" stroke="#b3b3b3" stroke-width="1"/></marker></defs>
  <text x="240" y="10" text-anchor="middle" font-size="9" font-weight="600" fill="#0078d4">Azure AI Language</text>
  <rect x="0" y="18" width="92" height="24" rx="2" fill="#f3f3f3" stroke="#e8e8e8"/><text x="46" y="34" text-anchor="middle" font-size="7" fill="#505050">Sentyment</text>
  <rect x="96" y="18" width="92" height="24" rx="2" fill="#f3f3f3" stroke="#e8e8e8"/><text x="142" y="34" text-anchor="middle" font-size="7" fill="#505050">Key Phrases</text>
  <rect x="192" y="18" width="92" height="24" rx="2" fill="#f3f3f3" stroke="#e8e8e8"/><text x="238" y="34" text-anchor="middle" font-size="7" fill="#505050">NER / PII</text>
  <rect x="288" y="18" width="92" height="24" rx="2" fill="#f3f3f3" stroke="#e8e8e8"/><text x="334" y="34" text-anchor="middle" font-size="7" fill="#505050">Summarization</text>
  <rect x="384" y="18" width="92" height="24" rx="2" fill="#f3f3f3" stroke="#e8e8e8"/><text x="430" y="34" text-anchor="middle" font-size="7" fill="#505050">Translation</text>
  <rect x="0" y="46" width="92" height="24" rx="2" fill="#e8f4fd" stroke="#0078d4" stroke-width="0.75"/><text x="46" y="62" text-anchor="middle" font-size="7" font-weight="600" fill="#0078d4">CLU</text>
  <rect x="96" y="46" width="92" height="24" rx="2" fill="#e8f4fd" stroke="#0078d4" stroke-width="0.75"/><text x="142" y="62" text-anchor="middle" font-size="7" font-weight="600" fill="#0078d4">Q&amp;A</text>
  <rect x="192" y="46" width="92" height="24" rx="2" fill="#f3f3f3" stroke="#e8e8e8"/><text x="238" y="62" text-anchor="middle" font-size="7" fill="#505050">Custom NER</text>
  <rect x="288" y="46" width="92" height="24" rx="2" fill="#f3f3f3" stroke="#e8e8e8"/><text x="334" y="62" text-anchor="middle" font-size="7" fill="#505050">Custom Classif.</text>
  <rect x="384" y="46" width="92" height="24" rx="2" fill="#f3f3f3" stroke="#e8e8e8"/><text x="430" y="62" text-anchor="middle" font-size="7" fill="#505050">Lang Detection</text>
</svg>