<svg viewBox="0 0 480 80" xmlns="http://www.w3.org/2000/svg" font-family="'Segoe UI',system-ui,sans-serif">
  <text x="240" y="10" text-anchor="middle" font-size="9" font-weight="600" fill="#0078d4">Azure Machine Learning</text>
  <rect x="0" y="18" width="92" height="24" rx="2" fill="#e8f4fd" stroke="#0078d4" stroke-width="0.75"/><text x="46" y="34" text-anchor="middle" font-size="7" font-weight="600" fill="#0078d4">AutoML</text>
  <rect x="96" y="18" width="92" height="24" rx="2" fill="#e8f4fd" stroke="#0078d4" stroke-width="0.75"/><text x="142" y="34" text-anchor="middle" font-size="7" font-weight="600" fill="#0078d4">Designer</text>
  <rect x="192" y="18" width="92" height="24" rx="2" fill="#f3f3f3" stroke="#e8e8e8"/><text x="238" y="34" text-anchor="middle" font-size="7" fill="#505050">Notebooks</text>
  <rect x="288" y="18" width="92" height="24" rx="2" fill="#f3f3f3" stroke="#e8e8e8"/><text x="334" y="34" text-anchor="middle" font-size="7" fill="#505050">Pipelines</text>
  <rect x="384" y="18" width="92" height="24" rx="2" fill="#f3f3f3" stroke="#e8e8e8"/><text x="430" y="34" text-anchor="middle" font-size="7" fill="#505050">Compute</text>
  <rect x="0" y="46" width="92" height="24" rx="2" fill="#f3f3f3" stroke="#e8e8e8"/><text x="46" y="62" text-anchor="middle" font-size="7" fill="#505050">Model Registry</text>
  <rect x="96" y="46" width="92" height="24" rx="2" fill="#f3f3f3" stroke="#e8e8e8"/><text x="142" y="62" text-anchor="middle" font-size="7" fill="#505050">Endpoints</text>
  <rect x="192" y="46" width="92" height="24" rx="2" fill="#f3f3f3" stroke="#e8e8e8"/><text x="238" y="62" text-anchor="middle" font-size="7" fill="#505050">Data Assets</text>
  <rect x="288" y="46" width="92" height="24" rx="2" fill="#f3f3f3" stroke="#e8e8e8"/><text x="334" y="62" text-anchor="middle" font-size="7" fill="#505050">MLOps</text>
  <rect x="384" y="46" width="92" height="24" rx="2" fill="#f3f3f3" stroke="#e8e8e8"/><text x="430" y="62" text-anchor="middle" font-size="7" fill="#505050">RAI Dashboard</text>
  <text x="240" y="78" text-anchor="middle" font-size="7" fill="#8a8a8a">No-code · Low-code · Full-code · Data Labeling · Feature Store</text>
</svg>