<svg viewBox="0 0 520 100" xmlns="http://www.w3.org/2000/svg" font-family="'Segoe UI',system-ui,sans-serif">
  <defs><marker id="a" markerWidth="5" markerHeight="5" refX="5" refY="2.5" orient="auto"><path d="M0,0 L5,2.5 L0,5" fill="none" stroke="#b3b3b3" stroke-width="1"/></marker></defs>
  <text x="260" y="10" text-anchor="middle" font-size="9" font-weight="600" fill="#0078d4">Azure AI Services</text>
  <rect x="0" y="18" width="122" height="24" rx="2" fill="#e8f4fd" stroke="#0078d4" stroke-width="0.75"/><text x="61" y="34" text-anchor="middle" font-size="7.5" font-weight="600" fill="#0078d4">Vision</text>
  <rect x="132" y="18" width="122" height="24" rx="2" fill="#e8f4fd" stroke="#0078d4" stroke-width="0.75"/><text x="193" y="34" text-anchor="middle" font-size="7.5" font-weight="600" fill="#0078d4">Language</text>
  <rect x="264" y="18" width="122" height="24" rx="2" fill="#e8f4fd" stroke="#0078d4" stroke-width="0.75"/><text x="325" y="34" text-anchor="middle" font-size="7.5" font-weight="600" fill="#0078d4">Speech</text>
  <rect x="396" y="18" width="122" height="24" rx="2" fill="#e8f4fd" stroke="#0078d4" stroke-width="0.75"/><text x="457" y="34" text-anchor="middle" font-size="7.5" font-weight="600" fill="#0078d4">Face</text>
  <line x1="61" y1="44" x2="61" y2="54" stroke="#b3b3b3" stroke-width="0.5"/><line x1="193" y1="44" x2="193" y2="54" stroke="#b3b3b3" stroke-width="0.5"/>
  <line x1="325" y1="44" x2="325" y2="54" stroke="#b3b3b3" stroke-width="0.5"/><line x1="457" y1="44" x2="457" y2="54" stroke="#b3b3b3" stroke-width="0.5"/>
  <rect x="0" y="56" width="168" height="24" rx="2" fill="#f3f3f3" stroke="#e8e8e8"/><text x="84" y="72" text-anchor="middle" font-size="7.5" font-weight="600" fill="#505050">Azure OpenAI</text>
  <rect x="176" y="56" width="168" height="24" rx="2" fill="#f3f3f3" stroke="#e8e8e8"/><text x="260" y="72" text-anchor="middle" font-size="7.5" font-weight="600" fill="#505050">AI Foundry</text>
  <rect x="352" y="56" width="168" height="24" rx="2" fill="#f3f3f3" stroke="#e8e8e8"/><text x="436" y="72" text-anchor="middle" font-size="7.5" font-weight="600" fill="#505050">Machine Learning</text>
  <text x="260" y="94" text-anchor="middle" font-size="7" fill="#8a8a8a">Portal → Zasób → Klucz API + Endpoint → REST / SDK (C#, Python)</text>
</svg>