<svg viewBox="0 0 480 82" xmlns="http://www.w3.org/2000/svg" font-family="'Segoe UI',system-ui,sans-serif">
  <text x="240" y="10" text-anchor="middle" font-size="9" font-weight="600" fill="#0078d4">Bias Detection &amp; Mitigation</text>
  <defs><marker id="a" markerWidth="5" markerHeight="5" refX="5" refY="2.5" orient="auto"><path d="M0,0 L5,2.5 L0,5" fill="none" stroke="#b3b3b3" stroke-width="1"/></marker></defs>
  <rect x="0" y="18" width="90" height="28" rx="3" fill="#fef3e0" stroke="#e8a020" stroke-width="0.75"/>
  <text x="45" y="30" text-anchor="middle" font-size="7.5" font-weight="600" fill="#e8a020">Biased Data</text>
  <text x="45" y="40" text-anchor="middle" font-size="6.5" fill="#8a8a8a">nierówne grupy</text>
  <line x1="92" y1="32" x2="104" y2="32" stroke="#b3b3b3" marker-end="url(#a)"/>
  <rect x="108" y="18" width="90" height="28" rx="3" fill="#fce4ec" stroke="#d32f2f" stroke-width="0.75"/>
  <text x="153" y="30" text-anchor="middle" font-size="7.5" font-weight="700" fill="#d32f2f">Biased Model</text>
  <text x="153" y="40" text-anchor="middle" font-size="6.5" fill="#8a8a8a">85% vs 65%</text>
  <line x1="200" y1="32" x2="212" y2="32" stroke="#b3b3b3" marker-end="url(#a)"/>
  <rect x="216" y="18" width="100" height="28" rx="3" fill="#e8f4fd" stroke="#0078d4" stroke-width="0.75"/>
  <text x="266" y="30" text-anchor="middle" font-size="7.5" font-weight="600" fill="#0078d4">Detekcja</text>
  <text x="266" y="40" text-anchor="middle" font-size="6.5" fill="#8a8a8a">RAI Dashboard</text>
  <line x1="318" y1="32" x2="330" y2="32" stroke="#b3b3b3" marker-end="url(#a)"/>
  <rect x="334" y="18" width="140" height="28" rx="3" fill="#e6f4ea" stroke="#34a853" stroke-width="0.75"/>
  <text x="404" y="30" text-anchor="middle" font-size="7.5" font-weight="600" fill="#34a853">Mitygacja</text>
  <text x="404" y="40" text-anchor="middle" font-size="6.5" fill="#8a8a8a">Fairlearn · Weighting · SMOTE</text>
  <rect x="0" y="54" width="234" height="20" rx="2" fill="#f3f3f3" stroke="#e8e8e8"/>
  <text x="117" y="67" text-anchor="middle" font-size="7" fill="#8a8a8a">Upstream: dane · Model: wagi · Downstream: threshold</text>
  <rect x="244" y="54" width="234" height="20" rx="2" fill="#f3f3f3" stroke="#e8e8e8"/>
  <text x="361" y="67" text-anchor="middle" font-size="7" fill="#8a8a8a">Fairness Assessment · Error Analysis · Explainability</text>
</svg>