<svg viewBox="0 0 780 380" xmlns="http://www.w3.org/2000/svg" font-family="Segoe UI,Arial,sans-serif">
  <defs>
    <marker id="arr" viewBox="0 0 10 10" refX="9" refY="5" markerWidth="7" markerHeight="7" orient="auto-start-reverse"><path d="M0,0 L10,5 L0,10z" fill="#94a3b8"/></marker>
  </defs>
  <rect width="780" height="380" fill="white" rx="12" stroke="#e2e8f0" stroke-width="1"/>
  <rect width="780" height="48" fill="#1e40af" rx="12"/><rect y="36" width="780" height="12" fill="#1e40af"/>
  <text x="390" y="30" text-anchor="middle" font-size="17" font-weight="700" fill="white">CLU &amp; Question Answering – Azure AI Language</text>
  <!-- CLU Flow -->
  <text x="390" y="74" text-anchor="middle" font-size="13" font-weight="700" fill="#1e40af">Conversational Language Understanding (CLU)</text>
  <rect x="16" y="86" width="140" height="56" rx="10" fill="#eff6ff" stroke="#3b82f6" stroke-width="2"/>
  <text x="86" y="108" text-anchor="middle" font-size="14">💬</text>
  <text x="86" y="128" text-anchor="middle" font-size="10" font-weight="600" fill="#1e40af">Wypowiedź (Utterance)</text>
  <line x1="156" y1="114" x2="186" y2="114" stroke="#94a3b8" stroke-width="2" marker-end="url(#arr)"/>
  <rect x="192" y="86" width="130" height="56" rx="10" fill="#f5f3ff" stroke="#8b5cf6" stroke-width="2"/>
  <text x="257" y="108" text-anchor="middle" font-size="14">🧠</text>
  <text x="257" y="128" text-anchor="middle" font-size="10" font-weight="600" fill="#6d28d9">Model CLU</text>
  <line x1="322" y1="114" x2="352" y2="99" stroke="#94a3b8" stroke-width="2" marker-end="url(#arr)"/>
  <line x1="322" y1="114" x2="352" y2="129" stroke="#94a3b8" stroke-width="2" marker-end="url(#arr)"/>
  <rect x="358" y="76" width="160" height="34" rx="8" fill="#ecfdf5" stroke="#059669" stroke-width="1.5"/>
  <text x="438" y="98" text-anchor="middle" font-size="10" font-weight="600" fill="#065f46">🎯 Intencja (Intent)</text>
  <rect x="358" y="116" width="160" height="34" rx="8" fill="#fefce8" stroke="#f59e0b" stroke-width="1.5"/>
  <text x="438" y="138" text-anchor="middle" font-size="10" font-weight="600" fill="#92400e">🏷️ Encje (Entities)</text>
  <line x1="518" y1="114" x2="548" y2="114" stroke="#94a3b8" stroke-width="2" marker-end="url(#arr)"/>
  <rect x="554" y="86" width="210" height="56" rx="10" fill="#fef2f2" stroke="#ef4444" stroke-width="1.5"/>
  <text x="659" y="108" text-anchor="middle" font-size="14">⚡</text>
  <text x="659" y="128" text-anchor="middle" font-size="10" font-weight="600" fill="#dc2626">Akcja / Odpowiedź</text>
  <!-- CLU Training -->
  <rect x="16" y="158" width="748" height="56" rx="10" fill="#f8fafc" stroke="#e2e8f0" stroke-width="1.5"/>
  <text x="390" y="178" text-anchor="middle" font-size="11" font-weight="700" fill="#374151">CLU – Trening</text>
  <text x="120" y="200" text-anchor="middle" font-size="10" fill="#374151">1️⃣ Definiuj intencje</text>
  <text x="300" y="200" text-anchor="middle" font-size="10" fill="#374151">2️⃣ Definiuj encje</text>
  <text x="480" y="200" text-anchor="middle" font-size="10" fill="#374151">3️⃣ Dodaj wypowiedzi (min. 5)</text>
  <text x="670" y="200" text-anchor="middle" font-size="10" fill="#374151">4️⃣ Trenuj i testuj model</text>
  <!-- Question Answering -->
  <text x="390" y="240" text-anchor="middle" font-size="13" font-weight="700" fill="#6d28d9">Custom Question Answering</text>
  <rect x="16" y="254" width="240" height="110" rx="10" fill="#f5f3ff" stroke="#8b5cf6" stroke-width="1.5"/>
  <text x="136" y="278" text-anchor="middle" font-size="11" font-weight="700" fill="#6d28d9">📚 Źródła wiedzy</text>
  <text x="136" y="298" text-anchor="middle" font-size="10" fill="#374151">• URL stron internetowych</text>
  <text x="136" y="314" text-anchor="middle" font-size="10" fill="#374151">• Pliki PDF / DOCX</text>
  <text x="136" y="330" text-anchor="middle" font-size="10" fill="#374151">• Ręczne pary Q&amp;A</text>
  <text x="136" y="348" text-anchor="middle" font-size="10" fill="#374151">• Chit-chat (Small Talk)</text>
  <line x1="256" y1="309" x2="286" y2="309" stroke="#94a3b8" stroke-width="2" marker-end="url(#arr)"/>
  <rect x="292" y="254" width="200" height="110" rx="10" fill="#eff6ff" stroke="#3b82f6" stroke-width="1.5"/>
  <text x="392" y="278" text-anchor="middle" font-size="11" font-weight="700" fill="#1e40af">🧠 Knowledge Base</text>
  <text x="392" y="298" text-anchor="middle" font-size="10" fill="#374151">Pary pytanie-odpowiedź</text>
  <text x="392" y="316" text-anchor="middle" font-size="10" fill="#374151">Multi-turn (dialog tree)</text>
  <text x="392" y="334" text-anchor="middle" font-size="10" fill="#374151">Prompts / Follow-up</text>
  <text x="392" y="352" text-anchor="middle" font-size="10" fill="#64748b">Confidence Score 0–1</text>
  <line x1="492" y1="309" x2="522" y2="309" stroke="#94a3b8" stroke-width="2" marker-end="url(#arr)"/>
  <rect x="528" y="254" width="236" height="110" rx="10" fill="#ecfdf5" stroke="#059669" stroke-width="1.5"/>
  <text x="646" y="278" text-anchor="middle" font-size="11" font-weight="700" fill="#065f46">🤖 Deploy</text>
  <text x="646" y="298" text-anchor="middle" font-size="10" fill="#374151">Endpoint REST API</text>
  <text x="646" y="316" text-anchor="middle" font-size="10" fill="#374151">Bot Framework integration</text>
  <text x="646" y="334" text-anchor="middle" font-size="10" fill="#374151">Active Learning (sugestie)</text>
  <text x="646" y="352" text-anchor="middle" font-size="10" fill="#64748b">DefaultAnswer fallback</text>
</svg>