<svg viewBox="0 0 720 180" xmlns="http://www.w3.org/2000/svg" font-family="Segoe UI,Arial,sans-serif">
  <defs>
    <marker id="arr" viewBox="0 0 10 10" refX="9" refY="5" markerWidth="7" markerHeight="7" orient="auto-start-reverse"><path d="M0,0 L10,5 L0,10z" fill="#94a3b8"/></marker>
  </defs>
  <rect width="720" height="180" fill="white" rx="12" stroke="#e2e8f0" stroke-width="1"/>
  <rect width="720" height="44" fill="#1e40af" rx="12"/><rect y="32" width="720" height="12" fill="#1e40af"/>
  <text x="360" y="28" text-anchor="middle" font-size="15" font-weight="700" fill="white">Computer Vision – Pipeline</text>
  <!-- Flow -->
  <rect x="16" y="60" width="130" height="56" rx="10" fill="#eff6ff" stroke="#3b82f6" stroke-width="2"/>
  <text x="81" y="82" text-anchor="middle" font-size="16">🖼️</text>
  <text x="81" y="102" text-anchor="middle" font-size="11" font-weight="700" fill="#1e40af">Obraz / Wideo</text>
  <line x1="146" y1="88" x2="176" y2="88" stroke="#94a3b8" stroke-width="2" marker-end="url(#arr)"/>
  <rect x="182" y="60" width="150" height="56" rx="10" fill="#f5f3ff" stroke="#8b5cf6" stroke-width="2"/>
  <text x="257" y="82" text-anchor="middle" font-size="16">🧠</text>
  <text x="257" y="102" text-anchor="middle" font-size="11" font-weight="700" fill="#6d28d9">Azure AI Vision</text>
  <line x1="332" y1="88" x2="362" y2="88" stroke="#94a3b8" stroke-width="2" marker-end="url(#arr)"/>
  <rect x="368" y="60" width="336" height="56" rx="10" fill="#ecfdf5" stroke="#059669" stroke-width="2"/>
  <text x="536" y="82" text-anchor="middle" font-size="16">✅</text>
  <text x="536" y="102" text-anchor="middle" font-size="11" font-weight="700" fill="#065f46">Wynik: tagi, obiekty, OCR, podpisy, twarze</text>
  <!-- Details -->
  <rect x="16" y="128" width="160" height="38" rx="8" fill="#f8fafc" stroke="#e2e8f0" stroke-width="1"/>
  <text x="96" y="152" text-anchor="middle" font-size="9" fill="#374151">Image Analysis 4.0</text>
  <rect x="188" y="128" width="160" height="38" rx="8" fill="#f8fafc" stroke="#e2e8f0" stroke-width="1"/>
  <text x="268" y="152" text-anchor="middle" font-size="9" fill="#374151">OCR (Read API)</text>
  <rect x="360" y="128" width="160" height="38" rx="8" fill="#f8fafc" stroke="#e2e8f0" stroke-width="1"/>
  <text x="440" y="152" text-anchor="middle" font-size="9" fill="#374151">Spatial Analysis</text>
  <rect x="532" y="128" width="172" height="38" rx="8" fill="#f8fafc" stroke="#e2e8f0" stroke-width="1"/>
  <text x="618" y="152" text-anchor="middle" font-size="9" fill="#374151">Custom Vision / Florence</text>
</svg>