<svg width="420" height="120" xmlns="http://www.w3.org/2000/svg">
  <defs>
    <linearGradient id="dl1" x1="0" y1="0" x2="1" y2="1">
      <stop offset="0%" stop-color="#e3b3f7"/>
      <stop offset="100%" stop-color="#b97fdc"/>
    </linearGradient>
    <linearGradient id="l1" x1="0" y1="0" x2="1" y2="1">
      <stop offset="0%" stop-color="#b3d1f7"/>
      <stop offset="100%" stop-color="#6fa8dc"/>
    </linearGradient>
    <linearGradient id="l2" x1="0" y1="0" x2="1" y2="1">
      <stop offset="0%" stop-color="#b3f7d1"/>
      <stop offset="100%" stop-color="#4ecb8c"/>
    </linearGradient>
    <linearGradient id="out" x1="0" y1="0" x2="1" y2="1">
      <stop offset="0%" stop-color="#f7e3b3"/>
      <stop offset="100%" stop-color="#f4b942"/>
    </linearGradient>
    <filter id="shadow" x="-20%" y="-20%" width="140%" height="140%">
      <feDropShadow dx="0" dy="2" stdDeviation="2" flood-color="#b0c4de"/>
    </filter>
    <marker id="arrow" markerWidth="10" markerHeight="10" refX="7" refY="5" orient="auto" markerUnits="strokeWidth">
      <path d="M0,0 L10,5 L0,10 L2,5 z" fill="#888" />
    </marker>
  </defs>
  <rect width="420" height="120" rx="18" fill="#fafdff"/>
  <g font-family="Segoe UI, Arial" font-size="14">
    <g filter="url(#shadow)">
      <rect x="20" y="40" width="60" height="40" rx="10" fill="url(#dl1)"/>
      <text x="50" y="65" text-anchor="middle" fill="#4e1a7a" font-weight="bold">Wejście</text>
      <rect x="90" y="40" width="70" height="40" rx="10" fill="url(#l1)"/>
      <text x="125" y="65" text-anchor="middle" fill="#1a355e" font-weight="bold">Warstwa 1</text>
      <rect x="170" y="40" width="70" height="40" rx="10" fill="url(#l2)"/>
      <text x="205" y="65" text-anchor="middle" fill="#1a3e2b" font-weight="bold">Warstwa 2</text>
      <rect x="250" y="40" width="70" height="40" rx="10" fill="url(#l1)"/>
      <text x="285" y="65" text-anchor="middle" fill="#1a355e" font-weight="bold">Warstwa 3</text>
      <rect x="330" y="40" width="70" height="40" rx="10" fill="url(#out)"/>
      <text x="365" y="65" text-anchor="middle" fill="#7a4e1a" font-weight="bold">Wyjście</text>
    </g>
    <polyline points="80,60 90,60" fill="none" stroke="#888" stroke-width="2" marker-end="url(#arrow)"/>
    <polyline points="160,60 170,60" fill="none" stroke="#888" stroke-width="2" marker-end="url(#arrow)"/>
    <polyline points="240,60 250,60" fill="none" stroke="#888" stroke-width="2" marker-end="url(#arrow)"/>
    <polyline points="320,60 330,60" fill="none" stroke="#888" stroke-width="2" marker-end="url(#arrow)"/>
  </g>
</svg>