<svg viewBox="0 0 400 88" xmlns="http://www.w3.org/2000/svg" font-family="'Segoe UI',system-ui,sans-serif">
  <g transform="translate(30,6)">
    <circle cx="0" cy="10" r="4" fill="#b3b3b3"/><circle cx="0" cy="26" r="4" fill="#b3b3b3"/><circle cx="0" cy="42" r="4" fill="#b3b3b3"/>
    <circle cx="80" cy="6" r="4" fill="#0078d4"/><circle cx="80" cy="18" r="4" fill="#0078d4"/><circle cx="80" cy="30" r="4" fill="#0078d4"/><circle cx="80" cy="42" r="4" fill="#0078d4"/>
    <circle cx="160" cy="6" r="4" fill="#0078d4"/><circle cx="160" cy="18" r="4" fill="#0078d4"/><circle cx="160" cy="30" r="4" fill="#0078d4"/><circle cx="160" cy="42" r="4" fill="#0078d4"/>
    <circle cx="240" cy="14" r="4" fill="#505050"/><circle cx="240" cy="34" r="4" fill="#505050"/>
    <g stroke="#e8e8e8" stroke-width="0.5">
      <line x1="4" y1="10" x2="76" y2="6"/><line x1="4" y1="10" x2="76" y2="18"/><line x1="4" y1="10" x2="76" y2="30"/><line x1="4" y1="10" x2="76" y2="42"/>
      <line x1="4" y1="26" x2="76" y2="6"/><line x1="4" y1="26" x2="76" y2="18"/><line x1="4" y1="26" x2="76" y2="30"/><line x1="4" y1="26" x2="76" y2="42"/>
      <line x1="4" y1="42" x2="76" y2="6"/><line x1="4" y1="42" x2="76" y2="18"/><line x1="4" y1="42" x2="76" y2="30"/><line x1="4" y1="42" x2="76" y2="42"/>
      <line x1="84" y1="6" x2="156" y2="6"/><line x1="84" y1="6" x2="156" y2="18"/><line x1="84" y1="6" x2="156" y2="30"/><line x1="84" y1="6" x2="156" y2="42"/>
      <line x1="84" y1="18" x2="156" y2="6"/><line x1="84" y1="18" x2="156" y2="18"/><line x1="84" y1="18" x2="156" y2="30"/><line x1="84" y1="18" x2="156" y2="42"/>
      <line x1="84" y1="30" x2="156" y2="6"/><line x1="84" y1="30" x2="156" y2="18"/><line x1="84" y1="30" x2="156" y2="30"/><line x1="84" y1="30" x2="156" y2="42"/>
      <line x1="84" y1="42" x2="156" y2="6"/><line x1="84" y1="42" x2="156" y2="18"/><line x1="84" y1="42" x2="156" y2="30"/><line x1="84" y1="42" x2="156" y2="42"/>
      <line x1="164" y1="6" x2="236" y2="14"/><line x1="164" y1="6" x2="236" y2="34"/>
      <line x1="164" y1="18" x2="236" y2="14"/><line x1="164" y1="18" x2="236" y2="34"/>
      <line x1="164" y1="30" x2="236" y2="14"/><line x1="164" y1="30" x2="236" y2="34"/>
      <line x1="164" y1="42" x2="236" y2="14"/><line x1="164" y1="42" x2="236" y2="34"/>
    </g>
    <text x="0" y="62" text-anchor="middle" font-size="7.5" fill="#8a8a8a">Input</text>
    <text x="80" y="62" text-anchor="middle" font-size="7.5" fill="#0078d4">Hidden 1</text>
    <text x="160" y="62" text-anchor="middle" font-size="7.5" fill="#0078d4">Hidden 2</text>
    <text x="240" y="62" text-anchor="middle" font-size="7.5" fill="#8a8a8a">Output</text>
  </g>
  <text x="200" y="84" text-anchor="middle" font-size="7.5" fill="#8a8a8a">Wielowarstwowe sieci neuronowe · Obrazy · Tekst · Mowa</text>
</svg>