<svg viewBox="0 0 500 120" xmlns="http://www.w3.org/2000/svg" font-family="Segoe UI,Arial,sans-serif">
  <defs>
    <marker id="arr" viewBox="0 0 10 10" refX="9" refY="5" markerWidth="7" markerHeight="7" orient="auto-start-reverse"><path d="M0,0 L10,5 L0,10z" fill="#94a3b8"/></marker>
  </defs>
  <rect width="500" height="120" fill="white" rx="10" stroke="#e2e8f0" stroke-width="1"/>
  <rect width="500" height="36" fill="#1e40af" rx="10"/><rect y="24" width="500" height="12" fill="#1e40af"/>
  <text x="250" y="24" text-anchor="middle" font-size="13" font-weight="700" fill="white">Deep Learning – Sieci neuronowe</text>
  <rect x="12" y="50" width="70" height="44" rx="8" fill="#f5f3ff" stroke="#8b5cf6" stroke-width="1.5"/>
  <text x="47" y="76" text-anchor="middle" font-size="10" font-weight="600" fill="#6d28d9">Wejście</text>
  <line x1="82" y1="72" x2="98" y2="72" stroke="#94a3b8" stroke-width="2" marker-end="url(#arr)"/>
  <rect x="104" y="50" width="80" height="44" rx="8" fill="#eff6ff" stroke="#3b82f6" stroke-width="1.5"/>
  <text x="144" y="76" text-anchor="middle" font-size="10" font-weight="600" fill="#1e40af">Warstwa 1</text>
  <line x1="184" y1="72" x2="200" y2="72" stroke="#94a3b8" stroke-width="2" marker-end="url(#arr)"/>
  <rect x="206" y="50" width="80" height="44" rx="8" fill="#ecfdf5" stroke="#059669" stroke-width="1.5"/>
  <text x="246" y="76" text-anchor="middle" font-size="10" font-weight="600" fill="#065f46">Warstwa 2</text>
  <line x1="286" y1="72" x2="302" y2="72" stroke="#94a3b8" stroke-width="2" marker-end="url(#arr)"/>
  <rect x="308" y="50" width="80" height="44" rx="8" fill="#eff6ff" stroke="#3b82f6" stroke-width="1.5"/>
  <text x="348" y="76" text-anchor="middle" font-size="10" font-weight="600" fill="#1e40af">Warstwa 3</text>
  <line x1="388" y1="72" x2="404" y2="72" stroke="#94a3b8" stroke-width="2" marker-end="url(#arr)"/>
  <rect x="410" y="50" width="78" height="44" rx="8" fill="#fefce8" stroke="#f59e0b" stroke-width="1.5"/>
  <text x="449" y="76" text-anchor="middle" font-size="10" font-weight="600" fill="#92400e">Wyjście</text>
  <text x="250" y="112" text-anchor="middle" font-size="8" fill="#64748b">Wiele ukrytych warstw · Automatyczna ekstrakcja cech · CNN, RNN, Transformer</text>
</svg>