<svg viewBox="0 0 780 380" xmlns="http://www.w3.org/2000/svg" font-family="Segoe UI,Arial,sans-serif">
  <defs>
    <marker id="arr" viewBox="0 0 10 10" refX="9" refY="5" markerWidth="7" markerHeight="7" orient="auto-start-reverse"><path d="M0,0 L10,5 L0,10z" fill="#94a3b8"/></marker>
  </defs>
  <rect width="780" height="380" fill="white" rx="12" stroke="#e2e8f0" stroke-width="1"/>
  <rect width="780" height="48" fill="#1e40af" rx="12"/><rect y="36" width="780" height="12" fill="#1e40af"/>
  <text x="390" y="30" text-anchor="middle" font-size="17" font-weight="700" fill="white">Azure AI Document Intelligence</text>
  <!-- Input docs -->
  <rect x="16" y="66" width="140" height="130" rx="10" fill="#f8fafc" stroke="#94a3b8" stroke-width="1.5"/>
  <text x="86" y="90" text-anchor="middle" font-size="12" font-weight="700" fill="#374151">📄 Wejście</text>
  <text x="86" y="110" text-anchor="middle" font-size="10" fill="#64748b">PDF, JPEG, PNG</text>
  <text x="86" y="126" text-anchor="middle" font-size="10" fill="#64748b">TIFF, BMP, HEIF</text>
  <text x="86" y="146" text-anchor="middle" font-size="10" fill="#64748b">MS Office</text>
  <text x="86" y="166" text-anchor="middle" font-size="10" fill="#64748b">HTML</text>
  <line x1="156" y1="131" x2="186" y2="131" stroke="#94a3b8" stroke-width="2" marker-end="url(#arr)"/>
  <!-- AI Processing -->
  <rect x="192" y="76" width="156" height="110" rx="10" fill="#eff6ff" stroke="#3b82f6" stroke-width="2"/>
  <text x="270" y="104" text-anchor="middle" font-size="20">🤖</text>
  <text x="270" y="126" text-anchor="middle" font-size="12" font-weight="700" fill="#1e40af">Document</text>
  <text x="270" y="142" text-anchor="middle" font-size="12" font-weight="700" fill="#1e40af">Intelligence</text>
  <text x="270" y="162" text-anchor="middle" font-size="9" fill="#64748b">OCR + AI Extraction</text>
  <line x1="348" y1="131" x2="378" y2="131" stroke="#94a3b8" stroke-width="2" marker-end="url(#arr)"/>
  <!-- Pre-built Models -->
  <rect x="384" y="60" width="226" height="148" rx="10" fill="#ecfdf5" stroke="#059669" stroke-width="1.5"/>
  <text x="497" y="84" text-anchor="middle" font-size="12" font-weight="700" fill="#065f46">Modele Pre-built</text>
  <rect x="396" y="94" width="100" height="26" rx="6" fill="white" stroke="#059669" stroke-width="1"/>
  <text x="446" y="112" text-anchor="middle" font-size="10" fill="#374151">🧾 Invoice</text>
  <rect x="502" y="94" width="100" height="26" rx="6" fill="white" stroke="#059669" stroke-width="1"/>
  <text x="552" y="112" text-anchor="middle" font-size="10" fill="#374151">🧾 Receipt</text>
  <rect x="396" y="126" width="100" height="26" rx="6" fill="white" stroke="#059669" stroke-width="1"/>
  <text x="446" y="144" text-anchor="middle" font-size="10" fill="#374151">🪪 ID Document</text>
  <rect x="502" y="126" width="100" height="26" rx="6" fill="white" stroke="#059669" stroke-width="1"/>
  <text x="552" y="144" text-anchor="middle" font-size="10" fill="#374151">💳 Business Card</text>
  <rect x="396" y="158" width="100" height="26" rx="6" fill="white" stroke="#059669" stroke-width="1"/>
  <text x="446" y="176" text-anchor="middle" font-size="10" fill="#374151">📋 W-2 / Tax</text>
  <rect x="502" y="158" width="100" height="26" rx="6" fill="white" stroke="#059669" stroke-width="1"/>
  <text x="552" y="176" text-anchor="middle" font-size="10" fill="#374151">🏥 Health Ins.</text>
  <line x1="610" y1="131" x2="640" y2="131" stroke="#94a3b8" stroke-width="2" marker-end="url(#arr)"/>
  <!-- Output -->
  <rect x="646" y="76" width="118" height="110" rx="10" fill="#fefce8" stroke="#f59e0b" stroke-width="2"/>
  <text x="705" y="104" text-anchor="middle" font-size="20">📤</text>
  <text x="705" y="126" text-anchor="middle" font-size="12" font-weight="700" fill="#92400e">JSON</text>
  <text x="705" y="146" text-anchor="middle" font-size="9" fill="#64748b">Key-Value pairs</text>
  <text x="705" y="160" text-anchor="middle" font-size="9" fill="#64748b">Tables, Fields</text>
  <!-- Bottom: Custom + Read + Layout -->
  <rect x="16" y="224" width="242" height="138" rx="10" fill="#f5f3ff" stroke="#8b5cf6" stroke-width="1.5"/>
  <text x="137" y="250" text-anchor="middle" font-size="12" font-weight="700" fill="#6d28d9">Custom Models</text>
  <text x="137" y="270" text-anchor="middle" font-size="10" fill="#374151">Trening na własnych dokumentach</text>
  <text x="137" y="290" text-anchor="middle" font-size="10" fill="#374151">• Template (fixed layout)</text>
  <text x="137" y="308" text-anchor="middle" font-size="10" fill="#374151">• Neural (varied layout)</text>
  <text x="137" y="328" text-anchor="middle" font-size="10" fill="#374151">• Composed (wiele modeli)</text>
  <text x="137" y="348" text-anchor="middle" font-size="9" fill="#64748b">Min. 5 dokumentów treningowych</text>
  <rect x="270" y="224" width="242" height="138" rx="10" fill="#eff6ff" stroke="#3b82f6" stroke-width="1.5"/>
  <text x="391" y="250" text-anchor="middle" font-size="12" font-weight="700" fill="#1e40af">Read Model (OCR)</text>
  <text x="391" y="270" text-anchor="middle" font-size="10" fill="#374151">Ekstrakcja tekstu z dokumentów</text>
  <text x="391" y="290" text-anchor="middle" font-size="10" fill="#374151">• Drukowany i ręczny tekst</text>
  <text x="391" y="308" text-anchor="middle" font-size="10" fill="#374151">• 309 języków (druk)</text>
  <text x="391" y="326" text-anchor="middle" font-size="10" fill="#374151">• 12 języków (rękopis)</text>
  <text x="391" y="348" text-anchor="middle" font-size="9" fill="#64748b">Podstawa wszystkich modeli</text>
  <rect x="524" y="224" width="240" height="138" rx="10" fill="#fef2f2" stroke="#ef4444" stroke-width="1.5"/>
  <text x="644" y="250" text-anchor="middle" font-size="12" font-weight="700" fill="#dc2626">Layout Model</text>
  <text x="644" y="270" text-anchor="middle" font-size="10" fill="#374151">Struktura dokumentu</text>
  <text x="644" y="290" text-anchor="middle" font-size="10" fill="#374151">• Tabele i komórki</text>
  <text x="644" y="308" text-anchor="middle" font-size="10" fill="#374151">• Zaznaczenia (checkmarks)</text>
  <text x="644" y="326" text-anchor="middle" font-size="10" fill="#374151">• Nagłówki / Sekcje</text>
  <text x="644" y="348" text-anchor="middle" font-size="9" fill="#64748b">Relacje strukturalne</text>
</svg>