<svg viewBox="0 0 520 72" xmlns="http://www.w3.org/2000/svg" font-family="'Segoe UI',system-ui,sans-serif">
  <defs><marker id="a" markerWidth="5" markerHeight="5" refX="5" refY="2.5" orient="auto"><path d="M0,0 L5,2.5 L0,5" fill="none" stroke="#b3b3b3" stroke-width="1"/></marker></defs>
  <text x="260" y="10" text-anchor="middle" font-size="9" font-weight="600" fill="#0078d4">Drift Detection &amp; Retraining Pipeline</text>
  <rect x="0" y="18" width="82" height="28" rx="3" fill="#e6f4ea" stroke="#34a853" stroke-width="0.75"/>
  <text x="41" y="30" text-anchor="middle" font-size="7.5" font-weight="600" fill="#34a853">v1 Deploy</text>
  <text x="41" y="40" text-anchor="middle" font-size="6.5" fill="#8a8a8a">produkcja</text>
  <line x1="84" y1="32" x2="96" y2="32" stroke="#b3b3b3" marker-end="url(#a)"/>
  <rect x="100" y="18" width="82" height="28" rx="3" fill="#e8f4fd" stroke="#0078d4" stroke-width="0.75"/>
  <text x="141" y="30" text-anchor="middle" font-size="7.5" font-weight="600" fill="#0078d4">Monitor</text>
  <text x="141" y="40" text-anchor="middle" font-size="6.5" fill="#8a8a8a">metryki · drift</text>
  <line x1="184" y1="32" x2="196" y2="32" stroke="#b3b3b3" marker-end="url(#a)"/>
  <rect x="200" y="18" width="82" height="28" rx="3" fill="#fef3e0" stroke="#e8a020" stroke-width="0.75"/>
  <text x="241" y="30" text-anchor="middle" font-size="7.5" font-weight="600" fill="#e8a020">⚠ Drift!</text>
  <text x="241" y="40" text-anchor="middle" font-size="6.5" fill="#8a8a8a">data / model</text>
  <line x1="284" y1="32" x2="296" y2="32" stroke="#b3b3b3" marker-end="url(#a)"/>
  <rect x="300" y="18" width="82" height="28" rx="3" fill="#e8f4fd" stroke="#0078d4" stroke-width="0.75"/>
  <text x="341" y="30" text-anchor="middle" font-size="7.5" font-weight="600" fill="#0078d4">Retrain</text>
  <text x="341" y="40" text-anchor="middle" font-size="6.5" fill="#8a8a8a">nowe dane</text>
  <line x1="384" y1="32" x2="396" y2="32" stroke="#b3b3b3" marker-end="url(#a)"/>
  <rect x="400" y="18" width="112" height="28" rx="3" fill="#e6f4ea" stroke="#34a853" stroke-width="0.75"/>
  <text x="456" y="30" text-anchor="middle" font-size="7.5" font-weight="600" fill="#34a853">v2 A/B Test</text>
  <text x="456" y="40" text-anchor="middle" font-size="6.5" fill="#8a8a8a">traffic split → rollout</text>
  <path d="M 512,32 Q 518,32 518,52 Q 518,62 260,62 Q 0,62 0,52 L 0,48" stroke="#b3b3b3" fill="none" stroke-width="0.75" stroke-dasharray="3,2" marker-end="url(#a)"/>
  <text x="260" y="66" text-anchor="middle" font-size="6.5" fill="#8a8a8a">Continuous retraining loop</text>
</svg>