<svg viewBox="0 0 720 180" xmlns="http://www.w3.org/2000/svg" font-family="Segoe UI,Arial,sans-serif">
  <defs>
    <marker id="arr" viewBox="0 0 10 10" refX="9" refY="5" markerWidth="7" markerHeight="7" orient="auto-start-reverse"><path d="M0,0 L10,5 L0,10z" fill="#94a3b8"/></marker>
  </defs>
  <rect width="720" height="180" fill="white" rx="12" stroke="#e2e8f0" stroke-width="1"/>
  <rect width="720" height="44" fill="#1e40af" rx="12"/><rect y="32" width="720" height="12" fill="#1e40af"/>
  <text x="360" y="28" text-anchor="middle" font-size="15" font-weight="700" fill="white">Generatywna AI – Przepływ</text>
  <!-- Flow -->
  <rect x="16" y="60" width="130" height="56" rx="10" fill="#eff6ff" stroke="#3b82f6" stroke-width="2"/>
  <text x="81" y="82" text-anchor="middle" font-size="16">📝</text>
  <text x="81" y="102" text-anchor="middle" font-size="11" font-weight="700" fill="#1e40af">Prompt</text>
  <line x1="146" y1="88" x2="176" y2="88" stroke="#94a3b8" stroke-width="2" marker-end="url(#arr)"/>
  <rect x="182" y="60" width="150" height="56" rx="10" fill="#f5f3ff" stroke="#8b5cf6" stroke-width="2"/>
  <text x="257" y="82" text-anchor="middle" font-size="16">🧠</text>
  <text x="257" y="102" text-anchor="middle" font-size="11" font-weight="700" fill="#6d28d9">LLM (GPT-4)</text>
  <line x1="332" y1="88" x2="362" y2="88" stroke="#94a3b8" stroke-width="2" marker-end="url(#arr)"/>
  <rect x="368" y="60" width="336" height="56" rx="10" fill="#ecfdf5" stroke="#059669" stroke-width="2"/>
  <text x="536" y="82" text-anchor="middle" font-size="16">✨</text>
  <text x="536" y="102" text-anchor="middle" font-size="11" font-weight="700" fill="#065f46">Wygenerowana treść: tekst, obraz, kod</text>
  <!-- Details -->
  <rect x="16" y="128" width="170" height="38" rx="8" fill="#fefce8" stroke="#f59e0b" stroke-width="1"/>
  <text x="101" y="152" text-anchor="middle" font-size="9" fill="#374151">GPT-4 / GPT-4o (tekst)</text>
  <rect x="198" y="128" width="170" height="38" rx="8" fill="#fefce8" stroke="#f59e0b" stroke-width="1"/>
  <text x="283" y="152" text-anchor="middle" font-size="9" fill="#374151">DALL-E 3 (obrazy)</text>
  <rect x="380" y="128" width="170" height="38" rx="8" fill="#fefce8" stroke="#f59e0b" stroke-width="1"/>
  <text x="465" y="152" text-anchor="middle" font-size="9" fill="#374151">GitHub Copilot (kod)</text>
  <rect x="562" y="128" width="142" height="38" rx="8" fill="#fefce8" stroke="#f59e0b" stroke-width="1"/>
  <text x="633" y="152" text-anchor="middle" font-size="9" fill="#374151">Copilot (Microsoft 365)</text>
</svg>