<svg viewBox="0 0 720 160" xmlns="http://www.w3.org/2000/svg" font-family="Segoe UI,Arial,sans-serif">
  <defs>
    <marker id="arr" viewBox="0 0 10 10" refX="9" refY="5" markerWidth="7" markerHeight="7" orient="auto-start-reverse"><path d="M0,0 L10,5 L0,10z" fill="#94a3b8"/></marker>
  </defs>
  <rect width="720" height="160" fill="white" rx="12" stroke="#e2e8f0" stroke-width="1"/>
  <rect width="720" height="44" fill="#1e40af" rx="12"/><rect y="32" width="720" height="12" fill="#1e40af"/>
  <text x="360" y="28" text-anchor="middle" font-size="15" font-weight="700" fill="white">Cykl życia ML</text>
  <!-- 5 steps -->
  <rect x="16" y="62" width="120" height="56" rx="10" fill="#eff6ff" stroke="#3b82f6" stroke-width="2"/>
  <text x="76" y="84" text-anchor="middle" font-size="14">📊</text>
  <text x="76" y="104" text-anchor="middle" font-size="11" font-weight="700" fill="#1e40af">Dane</text>
  <line x1="136" y1="90" x2="156" y2="90" stroke="#94a3b8" stroke-width="2" marker-end="url(#arr)"/>

  <rect x="162" y="62" width="120" height="56" rx="10" fill="#ecfdf5" stroke="#059669" stroke-width="2"/>
  <text x="222" y="84" text-anchor="middle" font-size="14">🧠</text>
  <text x="222" y="104" text-anchor="middle" font-size="11" font-weight="700" fill="#065f46">Trening</text>
  <line x1="282" y1="90" x2="302" y2="90" stroke="#94a3b8" stroke-width="2" marker-end="url(#arr)"/>

  <rect x="308" y="62" width="120" height="56" rx="10" fill="#fefce8" stroke="#f59e0b" stroke-width="2"/>
  <text x="368" y="84" text-anchor="middle" font-size="14">✅</text>
  <text x="368" y="104" text-anchor="middle" font-size="11" font-weight="700" fill="#92400e">Walidacja</text>
  <line x1="428" y1="90" x2="448" y2="90" stroke="#94a3b8" stroke-width="2" marker-end="url(#arr)"/>

  <rect x="454" y="62" width="120" height="56" rx="10" fill="#f5f3ff" stroke="#8b5cf6" stroke-width="2"/>
  <text x="514" y="84" text-anchor="middle" font-size="14">🚀</text>
  <text x="514" y="104" text-anchor="middle" font-size="11" font-weight="700" fill="#6d28d9">Wdrożenie</text>
  <line x1="574" y1="90" x2="594" y2="90" stroke="#94a3b8" stroke-width="2" marker-end="url(#arr)"/>

  <rect x="600" y="62" width="104" height="56" rx="10" fill="#fef2f2" stroke="#ef4444" stroke-width="2"/>
  <text x="652" y="84" text-anchor="middle" font-size="14">📈</text>
  <text x="652" y="104" text-anchor="middle" font-size="11" font-weight="700" fill="#dc2626">Monitoring</text>

  <!-- Labels -->
  <text x="76" y="132" text-anchor="middle" font-size="8" fill="#64748b">Zbieranie, czyszczenie</text>
  <text x="222" y="132" text-anchor="middle" font-size="8" fill="#64748b">Algorytm, hiperpar.</text>
  <text x="368" y="132" text-anchor="middle" font-size="8" fill="#64748b">Metryki, testowanie</text>
  <text x="514" y="132" text-anchor="middle" font-size="8" fill="#64748b">Endpoint, REST API</text>
  <text x="652" y="132" text-anchor="middle" font-size="8" fill="#64748b">Drift, retraining</text>
</svg>