<svg viewBox="0 0 480 52" xmlns="http://www.w3.org/2000/svg" font-family="'Segoe UI',system-ui,sans-serif">
  <defs><marker id="a" markerWidth="5" markerHeight="5" refX="5" refY="2.5" orient="auto"><path d="M0,0 L5,2.5 L0,5" fill="none" stroke="#b3b3b3" stroke-width="1"/></marker></defs>
  <rect x="0" y="6" width="72" height="28" rx="3" fill="#f3f3f3" stroke="#e8e8e8"/>
  <text x="36" y="24" text-anchor="middle" font-size="8" font-weight="600" fill="#505050">Dane</text>
  <line x1="74" y1="20" x2="84" y2="20" stroke="#b3b3b3" marker-end="url(#a)"/>
  <rect x="88" y="6" width="72" height="28" rx="3" fill="#e8f4fd" stroke="#0078d4" stroke-width="0.75"/>
  <text x="124" y="24" text-anchor="middle" font-size="8" font-weight="600" fill="#0078d4">Trening</text>
  <line x1="162" y1="20" x2="172" y2="20" stroke="#b3b3b3" marker-end="url(#a)"/>
  <rect x="176" y="6" width="72" height="28" rx="3" fill="#e8f4fd" stroke="#0078d4" stroke-width="0.75"/>
  <text x="212" y="24" text-anchor="middle" font-size="8" font-weight="600" fill="#0078d4">Ewaluacja</text>
  <line x1="250" y1="20" x2="260" y2="20" stroke="#b3b3b3" marker-end="url(#a)"/>
  <rect x="264" y="6" width="72" height="28" rx="3" fill="#e8f4fd" stroke="#0078d4" stroke-width="0.75"/>
  <text x="300" y="24" text-anchor="middle" font-size="8" font-weight="600" fill="#0078d4">Deploy</text>
  <line x1="338" y1="20" x2="348" y2="20" stroke="#b3b3b3" marker-end="url(#a)"/>
  <rect x="352" y="6" width="72" height="28" rx="3" fill="#f3f3f3" stroke="#e8e8e8"/>
  <text x="388" y="24" text-anchor="middle" font-size="8" font-weight="600" fill="#505050">Monitor</text>
  <path d="M 424,20 Q 440,20 440,40 Q 440,48 240,48 Q 36,48 36,40 L 36,36" stroke="#b3b3b3" fill="none" stroke-width="0.75" stroke-dasharray="3,2" marker-end="url(#a)"/>
  <text x="240" y="48" text-anchor="middle" font-size="6.5" fill="#8a8a8a">Retraining loop</text>
</svg>