<svg viewBox="0 0 520 48" xmlns="http://www.w3.org/2000/svg" font-family="'Segoe UI',system-ui,sans-serif">
  <defs><marker id="a" markerWidth="5" markerHeight="5" refX="5" refY="2.5" orient="auto"><path d="M0,0 L5,2.5 L0,5" fill="none" stroke="#b3b3b3" stroke-width="1"/></marker></defs>
  <rect x="0" y="4" width="50" height="26" rx="3" fill="#e8f4fd" stroke="#0078d4" stroke-width="0.75"/><text x="25" y="21" text-anchor="middle" font-size="7.5" font-weight="600" fill="#0078d4">Dane</text>
  <line x1="52" y1="17" x2="62" y2="17" stroke="#b3b3b3" marker-end="url(#a)"/>
  <rect x="66" y="4" width="50" height="26" rx="3" fill="#f3f3f3" stroke="#e8e8e8"/><text x="91" y="21" text-anchor="middle" font-size="7.5" font-weight="600" fill="#505050">Podzial</text>
  <line x1="118" y1="17" x2="128" y2="17" stroke="#b3b3b3" marker-end="url(#a)"/>
  <rect x="132" y="4" width="52" height="26" rx="3" fill="#f3f3f3" stroke="#e8e8e8"/><text x="158" y="21" text-anchor="middle" font-size="7.5" font-weight="600" fill="#505050">Features</text>
  <line x1="186" y1="17" x2="196" y2="17" stroke="#b3b3b3" marker-end="url(#a)"/>
  <rect x="200" y="4" width="52" height="26" rx="3" fill="#e8f4fd" stroke="#0078d4" stroke-width="0.75"/><text x="226" y="21" text-anchor="middle" font-size="7.5" font-weight="600" fill="#0078d4">Trening</text>
  <line x1="254" y1="17" x2="264" y2="17" stroke="#b3b3b3" marker-end="url(#a)"/>
  <rect x="268" y="4" width="56" height="26" rx="3" fill="#f3f3f3" stroke="#e8e8e8"/><text x="296" y="21" text-anchor="middle" font-size="7.5" font-weight="600" fill="#505050">Walidacja</text>
  <line x1="326" y1="17" x2="336" y2="17" stroke="#b3b3b3" marker-end="url(#a)"/>
  <rect x="340" y="4" width="42" height="26" rx="3" fill="#f3f3f3" stroke="#e8e8e8"/><text x="361" y="21" text-anchor="middle" font-size="7.5" font-weight="600" fill="#505050">Test</text>
  <line x1="384" y1="17" x2="394" y2="17" stroke="#b3b3b3" marker-end="url(#a)"/>
  <rect x="398" y="4" width="50" height="26" rx="3" fill="#e8f4fd" stroke="#0078d4" stroke-width="0.75"/><text x="423" y="21" text-anchor="middle" font-size="7.5" font-weight="600" fill="#0078d4">Deploy</text>
  <line x1="450" y1="17" x2="460" y2="17" stroke="#b3b3b3" marker-end="url(#a)"/>
  <rect x="464" y="4" width="52" height="26" rx="3" fill="#f3f3f3" stroke="#e8e8e8"/><text x="490" y="21" text-anchor="middle" font-size="7.5" font-weight="600" fill="#505050">Monitor</text>
  <text x="260" y="44" text-anchor="middle" font-size="7" fill="#8a8a8a">Dane → Podzial → Features → Trening → Walidacja → Test → Deploy → Monitoring</text>
</svg>