<svg viewBox="0 0 520 68" xmlns="http://www.w3.org/2000/svg" font-family="'Segoe UI',system-ui,sans-serif">
  <defs><marker id="a" markerWidth="5" markerHeight="5" refX="5" refY="2.5" orient="auto"><path d="M0,0 L5,2.5 L0,5" fill="none" stroke="#b3b3b3" stroke-width="1"/></marker></defs>
  <rect x="0" y="6" width="68" height="28" rx="3" fill="#f3f3f3" stroke="#e8e8e8"/>
  <text x="34" y="24" text-anchor="middle" font-size="8" font-weight="600" fill="#505050">Pytanie</text>
  <line x1="70" y1="20" x2="82" y2="20" stroke="#b3b3b3" marker-end="url(#a)"/>
  <rect x="86" y="6" width="72" height="28" rx="3" fill="#e8f4fd" stroke="#0078d4" stroke-width="0.75"/>
  <text x="122" y="24" text-anchor="middle" font-size="8" font-weight="600" fill="#0078d4">Retrieval</text>
  <line x1="160" y1="20" x2="172" y2="20" stroke="#b3b3b3" marker-end="url(#a)"/>
  <rect x="176" y="6" width="86" height="28" rx="3" fill="#f3f3f3" stroke="#e8e8e8"/>
  <text x="219" y="24" text-anchor="middle" font-size="8" font-weight="600" fill="#505050">Prompt Builder</text>
  <line x1="264" y1="20" x2="276" y2="20" stroke="#b3b3b3" marker-end="url(#a)"/>
  <rect x="280" y="6" width="82" height="28" rx="3" fill="#e8f4fd" stroke="#0078d4" stroke-width="0.75"/>
  <text x="321" y="24" text-anchor="middle" font-size="8" font-weight="600" fill="#0078d4">LLM (GPT-4)</text>
  <line x1="364" y1="20" x2="376" y2="20" stroke="#b3b3b3" marker-end="url(#a)"/>
  <rect x="380" y="6" width="80" height="28" rx="3" fill="#f3f3f3" stroke="#e8e8e8"/>
  <text x="420" y="24" text-anchor="middle" font-size="8" font-weight="600" fill="#505050">Odpowiedz</text>
  <line x1="122" y1="36" x2="122" y2="48" stroke="#b3b3b3" stroke-width="0.75" marker-end="url(#a)"/>
  <rect x="56" y="50" width="132" height="16" rx="2" fill="#f3f3f3" stroke="#e8e8e8"/>
  <text x="122" y="61" text-anchor="middle" font-size="7" fill="#8a8a8a">Baza wiedzy · PDF · FAQ · DB</text>
  <text x="460" y="18" font-size="6.5" fill="#8a8a8a">Aktualne dane</text>
  <text x="460" y="28" font-size="6.5" fill="#8a8a8a">Bez re-treningu</text>
  <text x="460" y="38" font-size="6.5" fill="#8a8a8a">Mniej halucynacji</text>
</svg>