<svg viewBox="0 0 720 210" xmlns="http://www.w3.org/2000/svg" font-family="Segoe UI,Arial,sans-serif">
  <rect width="720" height="210" fill="white" rx="12" stroke="#e2e8f0" stroke-width="1"/>
  <rect width="720" height="44" fill="#1e40af" rx="12"/><rect y="32" width="720" height="12" fill="#1e40af"/>
  <text x="360" y="28" text-anchor="middle" font-size="15" font-weight="700" fill="white">Responsible AI – 6 Zasad Microsoft</text>
  <!-- 6 boxes in 2 rows -->
  <rect x="16" y="60" width="220" height="56" rx="10" fill="#eff6ff" stroke="#3b82f6" stroke-width="2"/>
  <text x="126" y="82" text-anchor="middle" font-size="12" font-weight="700" fill="#1e40af">⚖️ Fairness</text>
  <text x="126" y="100" text-anchor="middle" font-size="9" fill="#64748b">Równe traktowanie, brak dyskryminacji</text>

  <rect x="250" y="60" width="220" height="56" rx="10" fill="#ecfdf5" stroke="#059669" stroke-width="2"/>
  <text x="360" y="82" text-anchor="middle" font-size="12" font-weight="700" fill="#065f46">🛡️ Reliability &amp; Safety</text>
  <text x="360" y="100" text-anchor="middle" font-size="9" fill="#64748b">Stabilne, bezpieczne działanie</text>

  <rect x="484" y="60" width="220" height="56" rx="10" fill="#f5f3ff" stroke="#8b5cf6" stroke-width="2"/>
  <text x="594" y="82" text-anchor="middle" font-size="12" font-weight="700" fill="#6d28d9">🔒 Privacy &amp; Security</text>
  <text x="594" y="100" text-anchor="middle" font-size="9" fill="#64748b">Ochrona danych, RODO</text>

  <rect x="16" y="130" width="220" height="56" rx="10" fill="#fefce8" stroke="#f59e0b" stroke-width="2"/>
  <text x="126" y="152" text-anchor="middle" font-size="12" font-weight="700" fill="#92400e">🌍 Inclusiveness</text>
  <text x="126" y="170" text-anchor="middle" font-size="9" fill="#64748b">Dostępność dla wszystkich grup</text>

  <rect x="250" y="130" width="220" height="56" rx="10" fill="#fef2f2" stroke="#ef4444" stroke-width="2"/>
  <text x="360" y="152" text-anchor="middle" font-size="12" font-weight="700" fill="#dc2626">🔍 Transparency</text>
  <text x="360" y="170" text-anchor="middle" font-size="9" fill="#64748b">Wyjaśnialność decyzji AI</text>

  <rect x="484" y="130" width="220" height="56" rx="10" fill="#f8fafc" stroke="#374151" stroke-width="2"/>
  <text x="594" y="152" text-anchor="middle" font-size="12" font-weight="700" fill="#374151">📋 Accountability</text>
  <text x="594" y="170" text-anchor="middle" font-size="9" fill="#64748b">Odpowiedzialność za decyzje AI</text>
</svg>