<svg viewBox="0 0 520 82" xmlns="http://www.w3.org/2000/svg" font-family="'Segoe UI',system-ui,sans-serif">
  <defs><marker id="a" markerWidth="5" markerHeight="5" refX="5" refY="2.5" orient="auto"><path d="M0,0 L5,2.5 L0,5" fill="none" stroke="#b3b3b3" stroke-width="1"/></marker></defs>
  <text x="260" y="10" text-anchor="middle" font-size="9" font-weight="600" fill="#0078d4">Vector Search &amp; Hybrid Search</text>
  <rect x="0" y="18" width="72" height="28" rx="3" fill="#f3f3f3" stroke="#e8e8e8"/>
  <text x="36" y="30" text-anchor="middle" font-size="7.5" font-weight="600" fill="#505050">Pytanie</text>
  <text x="36" y="40" text-anchor="middle" font-size="6.5" fill="#8a8a8a">tekst / obraz</text>
  <line x1="74" y1="32" x2="86" y2="32" stroke="#b3b3b3" marker-end="url(#a)"/>
  <rect x="90" y="18" width="82" height="28" rx="3" fill="#e8f4fd" stroke="#0078d4" stroke-width="0.75"/>
  <text x="131" y="30" text-anchor="middle" font-size="7.5" font-weight="600" fill="#0078d4">Embedding</text>
  <text x="131" y="40" text-anchor="middle" font-size="6.5" fill="#8a8a8a">→ wektor [0.2,…]</text>
  <line x1="174" y1="32" x2="186" y2="32" stroke="#b3b3b3" marker-end="url(#a)"/>
  <rect x="190" y="18" width="110" height="28" rx="3" fill="#e8f4fd" stroke="#0078d4" stroke-width="0.75"/>
  <text x="245" y="30" text-anchor="middle" font-size="7.5" font-weight="600" fill="#0078d4">Azure AI Search</text>
  <text x="245" y="40" text-anchor="middle" font-size="6.5" fill="#8a8a8a">vector + keyword</text>
  <line x1="302" y1="32" x2="314" y2="32" stroke="#b3b3b3" marker-end="url(#a)"/>
  <rect x="318" y="18" width="82" height="28" rx="3" fill="#f3f3f3" stroke="#e8e8e8"/>
  <text x="359" y="30" text-anchor="middle" font-size="7.5" font-weight="600" fill="#505050">Top-K docs</text>
  <text x="359" y="40" text-anchor="middle" font-size="6.5" fill="#8a8a8a">najbliższe</text>
  <line x1="402" y1="32" x2="414" y2="32" stroke="#b3b3b3" marker-end="url(#a)"/>
  <rect x="418" y="18" width="96" height="28" rx="3" fill="#e6f4ea" stroke="#34a853" stroke-width="0.75"/>
  <text x="466" y="30" text-anchor="middle" font-size="7.5" font-weight="600" fill="#34a853">LLM → Odp.</text>
  <text x="466" y="40" text-anchor="middle" font-size="6.5" fill="#8a8a8a">grounded answer</text>
  <rect x="90" y="54" width="140" height="20" rx="2" fill="#f3f3f3" stroke="#e8e8e8"/>
  <text x="160" y="67" text-anchor="middle" font-size="7" fill="#8a8a8a">Similarity · Multimodal · Multilingual</text>
  <rect x="250" y="54" width="160" height="20" rx="2" fill="#f3f3f3" stroke="#e8e8e8"/>
  <text x="330" y="67" text-anchor="middle" font-size="7" fill="#8a8a8a">Hybrid = Vector + Keyword → lepiej</text>
</svg>